<svg width="396" height="94" viewBox="0 0 396 94" fill="none" xmlns="http://www.w3.org/2000/svg">
<path d="M21.96 36.28C21.96 37.72 21.6 39.0533 20.88 40.28C20.16 41.48 19.0933 42.4533 17.68 43.2C16.2667 43.92 14.5467 44.28 12.52 44.28C10.52 44.28 8.73333 43.9467 7.16 43.28C5.58667 42.5867 4.32 41.6 3.36 40.32C2.42667 39.04 1.89333 37.5467 1.76 35.84H7.76C7.89333 36.9867 8.34667 37.9467 9.12 38.72C9.92 39.4667 10.9733 39.84 12.28 39.84C13.4533 39.84 14.3467 39.5333 14.96 38.92C15.6 38.28 15.92 37.4667 15.92 36.48C15.92 35.6 15.6667 34.88 15.16 34.32C14.6533 33.7333 14.0133 33.2667 13.24 32.92C12.4667 32.5733 11.4 32.1733 10.04 31.72C8.28 31.1333 6.84 30.56 5.72 30C4.6 29.4133 3.64 28.5733 2.84 27.48C2.06667 26.3867 1.68 24.96 1.68 23.2C1.68 20.7733 2.54667 18.8667 4.28 17.48C6.04 16.0667 8.36 15.36 11.24 15.36C14.2267 15.36 16.6 16.08 18.36 17.52C20.1467 18.96 21.16 20.88 21.4 23.28H15.32C15.16 22.2667 14.7333 21.44 14.04 20.8C13.3467 20.1333 12.4 19.8 11.2 19.8C10.16 19.8 9.32 20.08 8.68 20.64C8.04 21.1733 7.72 21.96 7.72 23C7.72 23.8267 7.96 24.52 8.44 25.08C8.94667 25.6133 9.57333 26.0533 10.32 26.4C11.0933 26.7467 12.1333 27.1333 13.44 27.56C15.2533 28.2 16.72 28.8 17.84 29.36C18.9867 29.92 19.96 30.76 20.76 31.88C21.56 33 21.96 34.4667 21.96 36.28ZM25.4747 15.48C25.4747 14.5733 25.7947 13.84 26.4347 13.28C27.0747 12.6933 27.9147 12.4 28.9547 12.4C29.9947 12.4 30.8347 12.6933 31.4747 13.28C32.1147 13.84 32.4347 14.5733 32.4347 15.48C32.4347 16.36 32.1147 17.0933 31.4747 17.68C30.8347 18.24 29.9947 18.52 28.9547 18.52C27.9147 18.52 27.0747 18.24 26.4347 17.68C25.7947 17.0933 25.4747 16.36 25.4747 15.48ZM31.7547 21.84V44H26.1147V21.84H31.7547ZM45.5369 21.56C47.4035 21.56 49.0035 22 50.3369 22.88C51.6702 23.76 52.6169 24.9467 53.1769 26.44V21.84H58.7769V44.08C58.7769 46.1333 58.3635 47.9733 57.5369 49.6C56.7369 51.2533 55.5235 52.5467 53.8969 53.48C52.2969 54.4133 50.3502 54.88 48.0569 54.88C44.8569 54.88 42.2702 54.12 40.2969 52.6C38.3235 51.08 37.1235 49.0133 36.6969 46.4H42.2569C42.5769 47.52 43.1902 48.3867 44.0969 49C45.0302 49.64 46.2169 49.96 47.6569 49.96C49.3102 49.96 50.6435 49.4667 51.6569 48.48C52.6702 47.52 53.1769 46.0533 53.1769 44.08V39.36C52.6169 40.8533 51.6702 42.0533 50.3369 42.96C49.0035 43.84 47.4035 44.28 45.5369 44.28C43.6702 44.28 41.9902 43.8267 40.4969 42.92C39.0035 42.0133 37.8302 40.7067 36.9769 39C36.1502 37.2667 35.7369 35.24 35.7369 32.92C35.7369 30.6 36.1502 28.5867 36.9769 26.88C37.8302 25.1467 39.0035 23.8267 40.4969 22.92C41.9902 22.0133 43.6702 21.56 45.5369 21.56ZM47.2969 26.48C45.5369 26.48 44.1235 27.0533 43.0569 28.2C41.9902 29.3467 41.4569 30.92 41.4569 32.92C41.4569 34.92 41.9902 36.4933 43.0569 37.64C44.1235 38.76 45.5369 39.32 47.2969 39.32C49.0035 39.32 50.4035 38.7467 51.4969 37.6C52.6169 36.4267 53.1769 34.8667 53.1769 32.92C53.1769 30.9467 52.6169 29.3867 51.4969 28.24C50.4035 27.0667 49.0035 26.48 47.2969 26.48ZM77.0881 21.52C79.6481 21.52 81.6881 22.36 83.2081 24.04C84.7281 25.72 85.4881 28.08 85.4881 31.12V44H79.8881V31.76C79.8881 30 79.4348 28.64 78.5281 27.68C77.6215 26.6933 76.3815 26.2 74.8081 26.2C73.2081 26.2 71.9281 26.72 70.9681 27.76C70.0081 28.8 69.5281 30.2933 69.5281 32.24V44H63.8881V21.84H69.5281V26.28C70.1148 24.7867 71.0748 23.6267 72.4081 22.8C73.7681 21.9467 75.3281 21.52 77.0881 21.52ZM98.5216 15.48C98.5216 14.5733 98.8416 13.84 99.4816 13.28C100.122 12.6933 100.962 12.4 102.002 12.4C103.042 12.4 103.882 12.6933 104.522 13.28C105.162 13.84 105.482 14.5733 105.482 15.48C105.482 16.36 105.162 17.0933 104.522 17.68C103.882 18.24 103.042 18.52 102.002 18.52C100.962 18.52 100.122 18.24 99.4816 17.68C98.8416 17.0933 98.5216 16.36 98.5216 15.48ZM104.802 21.84V44H99.1616V21.84H104.802ZM123.104 21.52C125.664 21.52 127.704 22.36 129.224 24.04C130.744 25.72 131.504 28.08 131.504 31.12V44H125.904V31.76C125.904 30 125.45 28.64 124.544 27.68C123.637 26.6933 122.397 26.2 120.824 26.2C119.224 26.2 117.944 26.72 116.984 27.76C116.024 28.8 115.544 30.2933 115.544 32.24V44H109.904V21.84H115.544V26.28C116.13 24.7867 117.09 23.6267 118.424 22.8C119.784 21.9467 121.344 21.52 123.104 21.52ZM157.017 39.16V44H154.057C151.577 44 149.671 43.4 148.337 42.2C147.031 41 146.377 39 146.377 36.2V26.6H143.297V21.84H146.377V16.36H152.017V21.84H156.977V26.6H152.017V36.28C152.017 37.3467 152.231 38.0933 152.657 38.52C153.084 38.9467 153.804 39.16 154.817 39.16H157.017ZM171.316 21.56C173.476 21.56 175.409 22.0133 177.116 22.92C178.849 23.8267 180.209 25.1467 181.196 26.88C182.182 28.5867 182.676 30.6 182.676 32.92C182.676 35.24 182.182 37.2533 181.196 38.96C180.209 40.6667 178.849 41.9867 177.116 42.92C175.409 43.8267 173.476 44.28 171.316 44.28C169.156 44.28 167.209 43.8267 165.476 42.92C163.769 41.9867 162.422 40.6667 161.436 38.96C160.449 37.2533 159.956 35.24 159.956 32.92C159.956 30.6 160.449 28.5867 161.436 26.88C162.422 25.1467 163.769 23.8267 165.476 22.92C167.209 22.0133 169.156 21.56 171.316 21.56ZM171.316 26.44C169.742 26.44 168.409 27 167.316 28.12C166.222 29.2133 165.676 30.8133 165.676 32.92C165.676 35.0267 166.222 36.64 167.316 37.76C168.409 38.8533 169.742 39.4 171.316 39.4C172.889 39.4 174.222 38.8533 175.316 37.76C176.409 36.64 176.956 35.0267 176.956 32.92C176.956 30.8133 176.409 29.2133 175.316 28.12C174.222 27 172.889 26.44 171.316 26.44ZM208.573 21.52C211.133 21.52 213.173 22.36 214.693 24.04C216.213 25.72 216.973 28.08 216.973 31.12V44H211.373V31.76C211.373 30 210.919 28.64 210.013 27.68C209.106 26.6933 207.866 26.2 206.293 26.2C204.693 26.2 203.413 26.72 202.453 27.76C201.493 28.8 201.013 30.2933 201.013 32.24V44H195.373V21.84H201.013V26.28C201.599 24.7867 202.559 23.6267 203.893 22.8C205.253 21.9467 206.813 21.52 208.573 21.52ZM230.615 21.56C232.482 21.56 234.082 22 235.415 22.88C236.748 23.76 237.695 24.9467 238.255 26.44V21.84H243.855V44H238.255V39.36C237.695 40.8533 236.748 42.0533 235.415 42.96C234.082 43.84 232.482 44.28 230.615 44.28C228.748 44.28 227.068 43.8267 225.575 42.92C224.082 42.0133 222.908 40.7067 222.055 39C221.228 37.2667 220.815 35.24 220.815 32.92C220.815 30.6 221.228 28.5867 222.055 26.88C222.908 25.1467 224.082 23.8267 225.575 22.92C227.068 22.0133 228.748 21.56 230.615 21.56ZM232.375 26.48C230.615 26.48 229.202 27.0533 228.135 28.2C227.068 29.3467 226.535 30.92 226.535 32.92C226.535 34.92 227.068 36.4933 228.135 37.64C229.202 38.76 230.615 39.32 232.375 39.32C234.082 39.32 235.482 38.7467 236.575 37.6C237.695 36.4267 238.255 34.8667 238.255 32.92C238.255 30.9467 237.695 29.3867 236.575 28.24C235.482 27.0667 234.082 26.48 232.375 26.48ZM277.166 21.52C279.86 21.52 281.98 22.36 283.526 24.04C285.1 25.6933 285.886 28.0533 285.886 31.12V44H280.286V31.76C280.286 30.0533 279.846 28.7467 278.966 27.84C278.113 26.9067 276.926 26.44 275.406 26.44C273.833 26.44 272.58 26.9333 271.646 27.92C270.713 28.9067 270.246 30.3467 270.246 32.24V44H264.646V31.76C264.646 30.0533 264.206 28.7467 263.326 27.84C262.473 26.9067 261.286 26.44 259.766 26.44C258.193 26.44 256.94 26.9333 256.006 27.92C255.073 28.9067 254.606 30.3467 254.606 32.24V44H248.966V21.84H254.606V26.04C255.193 24.6 256.113 23.4933 257.366 22.72C258.646 21.92 260.126 21.52 261.806 21.52C263.593 21.52 265.14 21.9467 266.446 22.8C267.78 23.6533 268.78 24.88 269.446 26.48C270.14 24.96 271.166 23.76 272.526 22.88C273.913 21.9733 275.46 21.52 277.166 21.52ZM311.681 32.08C311.681 32.64 311.615 33.28 311.481 34H295.241C295.321 35.9733 295.855 37.4267 296.841 38.36C297.828 39.2933 299.055 39.76 300.521 39.76C301.828 39.76 302.908 39.44 303.761 38.8C304.641 38.16 305.201 37.2933 305.441 36.2H311.401C311.108 37.7467 310.481 39.1333 309.521 40.36C308.561 41.5867 307.321 42.5467 305.801 43.24C304.308 43.9333 302.641 44.28 300.801 44.28C298.641 44.28 296.721 43.8267 295.041 42.92C293.361 41.9867 292.055 40.6667 291.121 38.96C290.188 37.2533 289.721 35.24 289.721 32.92C289.721 30.6 290.188 28.5867 291.121 26.88C292.055 25.1467 293.361 23.8267 295.041 22.92C296.721 22.0133 298.641 21.56 300.801 21.56C302.988 21.56 304.895 22.0133 306.521 22.92C308.175 23.8267 309.441 25.08 310.321 26.68C311.228 28.2533 311.681 30.0533 311.681 32.08ZM306.001 31.52C306.081 29.7067 305.601 28.3333 304.561 27.4C303.548 26.4667 302.295 26 300.801 26C299.281 26 298.001 26.4667 296.961 27.4C295.921 28.3333 295.348 29.7067 295.241 31.52H306.001Z" fill="white"/>
<path d="M2.94 84.88H8.06V86H1.52V71.9H2.94V84.88ZM14.917 74.94C15.957 74.94 16.8837 75.1667 17.697 75.62C18.5237 76.06 19.1704 76.7067 19.637 77.56C20.1037 78.4 20.337 79.3933 20.337 80.54C20.337 81.6867 20.1037 82.68 19.637 83.52C19.1704 84.36 18.5237 85.0067 17.697 85.46C16.8837 85.9133 15.957 86.14 14.917 86.14C13.877 86.14 12.9437 85.9133 12.117 85.46C11.2904 85.0067 10.637 84.36 10.157 83.52C9.69036 82.6667 9.45703 81.6733 9.45703 80.54C9.45703 79.3933 9.69036 78.4 10.157 77.56C10.637 76.7067 11.2904 76.06 12.117 75.62C12.9437 75.1667 13.877 74.94 14.917 74.94ZM14.917 76.16C14.197 76.16 13.5304 76.32 12.917 76.64C12.3037 76.96 11.8104 77.4533 11.437 78.12C11.0637 78.7733 10.877 79.58 10.877 80.54C10.877 81.5 11.0637 82.3067 11.437 82.96C11.8104 83.6133 12.3037 84.1 12.917 84.42C13.5304 84.74 14.197 84.9 14.917 84.9C15.6237 84.9 16.277 84.74 16.877 84.42C17.4904 84.1 17.9837 83.6133 18.357 82.96C18.7304 82.3067 18.917 81.5 18.917 80.54C18.917 79.58 18.7304 78.7733 18.357 78.12C17.9837 77.4533 17.4904 76.96 16.877 76.64C16.277 76.32 15.6237 76.16 14.917 76.16ZM24.2681 77.34C24.5881 76.5533 25.1015 75.9467 25.8081 75.52C26.5148 75.0933 27.3748 74.88 28.3881 74.88V76.4H27.9281C26.8748 76.4 26.0015 76.6867 25.3081 77.26C24.6148 77.82 24.2681 78.74 24.2681 80.02V86H22.8481V75.08H24.2681V77.34ZM35.0105 84.98C35.9971 84.98 36.8238 84.7333 37.4905 84.24C38.1571 83.7467 38.5571 83.08 38.6905 82.24H40.1705C39.9705 83.4 39.4171 84.34 38.5105 85.06C37.6038 85.78 36.4571 86.14 35.0705 86.14C34.0305 86.14 33.1038 85.92 32.2905 85.48C31.4905 85.0267 30.8638 84.38 30.4105 83.54C29.9571 82.6867 29.7305 81.6867 29.7305 80.54C29.7305 79.3933 29.9571 78.4 30.4105 77.56C30.8638 76.7067 31.4905 76.06 32.2905 75.62C33.1038 75.1667 34.0305 74.94 35.0705 74.94C36.1371 74.94 37.0571 75.1667 37.8305 75.62C38.6171 76.06 39.2105 76.6533 39.6105 77.4C40.0238 78.1467 40.2305 78.96 40.2305 79.84C40.2305 80.2133 40.2038 80.5533 40.1505 80.86H31.1105C31.1238 81.78 31.3105 82.5533 31.6705 83.18C32.0438 83.7933 32.5238 84.2467 33.1105 84.54C33.6971 84.8333 34.3305 84.98 35.0105 84.98ZM35.0705 76.08C34.3638 76.08 33.7171 76.2267 33.1305 76.52C32.5438 76.8133 32.0638 77.2667 31.6905 77.88C31.3305 78.48 31.1371 79.2333 31.1105 80.14H38.8305C38.8838 79.2467 38.7371 78.4933 38.3905 77.88C38.0438 77.2667 37.5771 76.8133 36.9905 76.52C36.4038 76.2267 35.7638 76.08 35.0705 76.08ZM56.0105 74.88C57.2638 74.88 58.2771 75.2867 59.0505 76.1C59.8371 76.9 60.2305 78.08 60.2305 79.64V86H58.8305V79.74C58.8305 78.5667 58.5438 77.6667 57.9705 77.04C57.4105 76.4133 56.6371 76.1 55.6505 76.1C54.5971 76.1 53.7571 76.4467 53.1305 77.14C52.5038 77.8333 52.1905 78.8533 52.1905 80.2V86H50.8105V79.74C50.8105 78.5667 50.5238 77.6667 49.9505 77.04C49.3905 76.4133 48.6171 76.1 47.6305 76.1C46.5771 76.1 45.7371 76.4467 45.1105 77.14C44.4838 77.8333 44.1705 78.8533 44.1705 80.2V86H42.7505V75.08H44.1705V77.68C44.4371 76.76 44.9171 76.0667 45.6105 75.6C46.3171 75.12 47.1305 74.88 48.0505 74.88C49.0105 74.88 49.8371 75.1333 50.5305 75.64C51.2238 76.1467 51.7038 76.8933 51.9705 77.88C52.2638 76.9067 52.7771 76.1667 53.5105 75.66C54.2438 75.14 55.0771 74.88 56.0105 74.88ZM69.7955 71.9V86H68.3755V71.9H69.7955ZM78.6686 74.94C79.6686 74.94 80.5486 75.1667 81.3086 75.62C82.0819 76.06 82.6819 76.7067 83.1086 77.56C83.5486 78.4 83.7686 79.3933 83.7686 80.54C83.7686 81.6733 83.5486 82.6667 83.1086 83.52C82.6819 84.36 82.0819 85.0067 81.3086 85.46C80.5353 85.9133 79.6553 86.14 78.6686 86.14C77.5486 86.14 76.6019 85.8533 75.8286 85.28C75.0553 84.7067 74.5219 83.9467 74.2286 83V91.16H72.8286V75.08H74.2286V78.08C74.5219 77.1333 75.0553 76.3733 75.8286 75.8C76.6019 75.2267 77.5486 74.94 78.6686 74.94ZM78.2886 76.18C77.5153 76.18 76.8153 76.36 76.1886 76.72C75.5753 77.08 75.0953 77.5933 74.7486 78.26C74.4019 78.9133 74.2286 79.6733 74.2286 80.54C74.2286 81.4067 74.4019 82.1733 74.7486 82.84C75.0953 83.4933 75.5753 84 76.1886 84.36C76.8153 84.72 77.5153 84.9 78.2886 84.9C79.5286 84.9 80.5153 84.5133 81.2486 83.74C81.9819 82.9533 82.3486 81.8867 82.3486 80.54C82.3486 79.1933 81.9819 78.1333 81.2486 77.36C80.5153 76.5733 79.5286 76.18 78.2886 76.18ZM89.5856 74.94C90.7723 74.94 91.7256 75.2533 92.4456 75.88C93.1656 76.5067 93.6056 77.3533 93.7656 78.42H92.4256C92.3456 77.7133 92.0523 77.1333 91.5456 76.68C91.0523 76.2133 90.3856 75.98 89.5456 75.98C88.8256 75.98 88.259 76.16 87.8456 76.52C87.4456 76.8667 87.2456 77.3333 87.2456 77.92C87.2456 78.36 87.3723 78.7133 87.6256 78.98C87.8923 79.2467 88.219 79.4533 88.6056 79.6C88.9923 79.7333 89.5123 79.8733 90.1656 80.02C90.9656 80.2067 91.6056 80.4 92.0856 80.6C92.579 80.7867 92.999 81.0867 93.3456 81.5C93.6923 81.9133 93.8656 82.4733 93.8656 83.18C93.8656 84.0467 93.539 84.76 92.8856 85.32C92.2456 85.8667 91.3923 86.14 90.3256 86.14C89.0723 86.14 88.0456 85.8333 87.2456 85.22C86.4456 84.5933 85.9723 83.74 85.8256 82.66H87.1856C87.2656 83.38 87.579 83.9667 88.1256 84.42C88.6723 84.8733 89.4123 85.1 90.3456 85.1C91.039 85.1 91.579 84.92 91.9656 84.56C92.3523 84.2 92.5456 83.7333 92.5456 83.16C92.5456 82.6933 92.4123 82.32 92.1456 82.04C91.879 81.76 91.5456 81.5533 91.1456 81.42C90.759 81.2733 90.2256 81.12 89.5456 80.96C88.759 80.7733 88.1256 80.5867 87.6456 80.4C87.179 80.2133 86.779 79.9267 86.4456 79.54C86.1123 79.14 85.9456 78.6 85.9456 77.92C85.9456 77.0267 86.2723 76.3067 86.9256 75.76C87.579 75.2133 88.4656 74.94 89.5856 74.94ZM105.842 75.08V86H104.442V83.3C104.162 84.2467 103.656 84.9667 102.922 85.46C102.189 85.9533 101.349 86.2 100.402 86.2C99.1223 86.2 98.0823 85.8 97.2823 85C96.4957 84.1867 96.1023 83 96.1023 81.44V75.08H97.5023V81.32C97.5023 82.52 97.8023 83.44 98.4023 84.08C99.0023 84.7067 99.8223 85.02 100.862 85.02C101.956 85.02 102.822 84.6733 103.462 83.98C104.116 83.2733 104.442 82.24 104.442 80.88V75.08H105.842ZM122.163 74.88C123.416 74.88 124.429 75.2867 125.203 76.1C125.989 76.9 126.383 78.08 126.383 79.64V86H124.983V79.74C124.983 78.5667 124.696 77.6667 124.123 77.04C123.563 76.4133 122.789 76.1 121.803 76.1C120.749 76.1 119.909 76.4467 119.283 77.14C118.656 77.8333 118.343 78.8533 118.343 80.2V86H116.963V79.74C116.963 78.5667 116.676 77.6667 116.103 77.04C115.543 76.4133 114.769 76.1 113.783 76.1C112.729 76.1 111.889 76.4467 111.263 77.14C110.636 77.8333 110.323 78.8533 110.323 80.2V86H108.903V75.08H110.323V77.68C110.589 76.76 111.069 76.0667 111.763 75.6C112.469 75.12 113.283 74.88 114.203 74.88C115.163 74.88 115.989 75.1333 116.683 75.64C117.376 76.1467 117.856 76.8933 118.123 77.88C118.416 76.9067 118.929 76.1667 119.663 75.66C120.396 75.14 121.229 74.88 122.163 74.88ZM134.208 71.84C134.208 71.5467 134.301 71.3133 134.488 71.14C134.688 70.9667 134.941 70.88 135.248 70.88C135.554 70.88 135.801 70.9667 135.988 71.14C136.174 71.3133 136.268 71.5467 136.268 71.84C136.268 72.12 136.174 72.3467 135.988 72.52C135.801 72.6933 135.554 72.78 135.248 72.78C134.941 72.78 134.688 72.6933 134.488 72.52C134.301 72.3467 134.208 72.12 134.208 71.84ZM135.948 75.08V86H134.528V75.08H135.948ZM142.281 74.94C143.468 74.94 144.421 75.2533 145.141 75.88C145.861 76.5067 146.301 77.3533 146.461 78.42H145.121C145.041 77.7133 144.748 77.1333 144.241 76.68C143.748 76.2133 143.081 75.98 142.241 75.98C141.521 75.98 140.954 76.16 140.541 76.52C140.141 76.8667 139.941 77.3333 139.941 77.92C139.941 78.36 140.068 78.7133 140.321 78.98C140.588 79.2467 140.914 79.4533 141.301 79.6C141.688 79.7333 142.208 79.8733 142.861 80.02C143.661 80.2067 144.301 80.4 144.781 80.6C145.274 80.7867 145.694 81.0867 146.041 81.5C146.388 81.9133 146.561 82.4733 146.561 83.18C146.561 84.0467 146.234 84.76 145.581 85.32C144.941 85.8667 144.088 86.14 143.021 86.14C141.768 86.14 140.741 85.8333 139.941 85.22C139.141 84.5933 138.668 83.74 138.521 82.66H139.881C139.961 83.38 140.274 83.9667 140.821 84.42C141.368 84.8733 142.108 85.1 143.041 85.1C143.734 85.1 144.274 84.92 144.661 84.56C145.048 84.2 145.241 83.7333 145.241 83.16C145.241 82.6933 145.108 82.32 144.841 82.04C144.574 81.76 144.241 81.5533 143.841 81.42C143.454 81.2733 142.921 81.12 142.241 80.96C141.454 80.7733 140.821 80.5867 140.341 80.4C139.874 80.2133 139.474 79.9267 139.141 79.54C138.808 79.14 138.641 78.6 138.641 77.92C138.641 77.0267 138.968 76.3067 139.621 75.76C140.274 75.2133 141.161 74.94 142.281 74.94ZM157.613 74.94C158.8 74.94 159.753 75.2533 160.473 75.88C161.193 76.5067 161.633 77.3533 161.793 78.42H160.453C160.373 77.7133 160.08 77.1333 159.573 76.68C159.08 76.2133 158.413 75.98 157.573 75.98C156.853 75.98 156.286 76.16 155.873 76.52C155.473 76.8667 155.273 77.3333 155.273 77.92C155.273 78.36 155.4 78.7133 155.653 78.98C155.92 79.2467 156.246 79.4533 156.633 79.6C157.02 79.7333 157.54 79.8733 158.193 80.02C158.993 80.2067 159.633 80.4 160.113 80.6C160.606 80.7867 161.026 81.0867 161.373 81.5C161.72 81.9133 161.893 82.4733 161.893 83.18C161.893 84.0467 161.566 84.76 160.913 85.32C160.273 85.8667 159.42 86.14 158.353 86.14C157.1 86.14 156.073 85.8333 155.273 85.22C154.473 84.5933 154 83.74 153.853 82.66H155.213C155.293 83.38 155.606 83.9667 156.153 84.42C156.7 84.8733 157.44 85.1 158.373 85.1C159.066 85.1 159.606 84.92 159.993 84.56C160.38 84.2 160.573 83.7333 160.573 83.16C160.573 82.6933 160.44 82.32 160.173 82.04C159.906 81.76 159.573 81.5533 159.173 81.42C158.786 81.2733 158.253 81.12 157.573 80.96C156.786 80.7733 156.153 80.5867 155.673 80.4C155.206 80.2133 154.806 79.9267 154.473 79.54C154.14 79.14 153.973 78.6 153.973 77.92C153.973 77.0267 154.3 76.3067 154.953 75.76C155.606 75.2133 156.493 74.94 157.613 74.94ZM164.13 71.84C164.13 71.5467 164.223 71.3133 164.41 71.14C164.61 70.9667 164.863 70.88 165.17 70.88C165.476 70.88 165.723 70.9667 165.91 71.14C166.096 71.3133 166.19 71.5467 166.19 71.84C166.19 72.12 166.096 72.3467 165.91 72.52C165.723 72.6933 165.476 72.78 165.17 72.78C164.863 72.78 164.61 72.6933 164.41 72.52C164.223 72.3467 164.13 72.12 164.13 71.84ZM165.87 75.08V86H164.45V75.08H165.87ZM182.163 74.88C183.416 74.88 184.429 75.2867 185.203 76.1C185.989 76.9 186.383 78.08 186.383 79.64V86H184.983V79.74C184.983 78.5667 184.696 77.6667 184.123 77.04C183.563 76.4133 182.789 76.1 181.803 76.1C180.749 76.1 179.909 76.4467 179.283 77.14C178.656 77.8333 178.343 78.8533 178.343 80.2V86H176.963V79.74C176.963 78.5667 176.676 77.6667 176.103 77.04C175.543 76.4133 174.769 76.1 173.783 76.1C172.729 76.1 171.889 76.4467 171.263 77.14C170.636 77.8333 170.323 78.8533 170.323 80.2V86H168.903V75.08H170.323V77.68C170.589 76.76 171.069 76.0667 171.763 75.6C172.469 75.12 173.283 74.88 174.203 74.88C175.163 74.88 175.989 75.1333 176.683 75.64C177.376 76.1467 177.856 76.8933 178.123 77.88C178.416 76.9067 178.929 76.1667 179.663 75.66C180.396 75.14 181.229 74.88 182.163 74.88ZM195.173 74.94C196.173 74.94 197.053 75.1667 197.812 75.62C198.586 76.06 199.186 76.7067 199.613 77.56C200.053 78.4 200.273 79.3933 200.273 80.54C200.273 81.6733 200.053 82.6667 199.613 83.52C199.186 84.36 198.586 85.0067 197.812 85.46C197.039 85.9133 196.159 86.14 195.173 86.14C194.053 86.14 193.106 85.8533 192.333 85.28C191.559 84.7067 191.026 83.9467 190.733 83V91.16H189.333V75.08H190.733V78.08C191.026 77.1333 191.559 76.3733 192.333 75.8C193.106 75.2267 194.053 74.94 195.173 74.94ZM194.793 76.18C194.019 76.18 193.319 76.36 192.693 76.72C192.079 77.08 191.599 77.5933 191.253 78.26C190.906 78.9133 190.733 79.6733 190.733 80.54C190.733 81.4067 190.906 82.1733 191.253 82.84C191.599 83.4933 192.079 84 192.693 84.36C193.319 84.72 194.019 84.9 194.793 84.9C196.033 84.9 197.019 84.5133 197.753 83.74C198.486 82.9533 198.853 81.8867 198.853 80.54C198.853 79.1933 198.486 78.1333 197.753 77.36C197.019 76.5733 196.033 76.18 194.793 76.18ZM204.21 71.2V86H202.79V71.2H204.21ZM207.543 75.08L211.343 84.18L214.843 75.08H216.403L209.983 91.16H208.383L210.583 85.88L205.983 75.08H207.543Z" fill="white"/>
</svg>
